<?xml version="1.0" encoding="utf-8"?>
<!-- Generator: Adobe Illustrator 16.0.0, SVG Export Plug-In . SVG Version: 6.00 Build 0)  -->
<!DOCTYPE svg PUBLIC "-//W3C//DTD SVG 1.1//EN" "http://www.w3.org/Graphics/SVG/1.1/DTD/svg11.dtd">
<svg version="1.1" id="Layer_1" xmlns="http://www.w3.org/2000/svg" xmlns:xlink="http://www.w3.org/1999/xlink" x="0px" y="0px"
	 width="2157.377px" height="569.729px" viewBox="0 0 2157.377 569.729" enable-background="new 0 0 2157.377 569.729"
	 xml:space="preserve">
<g>
	<path fill-rule="evenodd" clip-rule="evenodd" fill="#FF9800" d="M796.023,4.942c-0.016-0.637-0.059-1.281-0.211-1.91
		c-0.289-1.215-1.117-1.793-2.98-1.912s-3.746-0.115-5.621-0.115c-19.889-0.008-39.777-0.004-59.668-0.004
		c-87.623,0-175.248-0.002-262.871,0.004c-2.25,0-4.508-0.006-6.748,0.111c-1.83,0.098-2.74,0.697-2.971,1.918
		c-0.213,1.137-0.248,2.295-0.248,3.443c-0.012,34.301-0.01,68.604-0.004,102.904c0,1.021-0.021,2.053,0.131,3.068
		c0.24,1.621,1.127,2.215,3.631,2.348c2.053,0.109,4.123,0.082,6.188,0.082c46.908,0.004,93.816,0.004,140.723,0.004
		c23.268,0,46.533-0.012,69.801,0.008c6.408,0.004,6.703,0.199,6.705,4.535c0.02,34.563,0.012,69.117,0.004,103.676
		c0,0.895-0.041,1.793-0.188,2.68c-0.164,1-1.025,1.668-2.535,1.738c-2.055,0.094-4.121,0.125-6.182,0.121
		c-69.424-0.016-138.848-0.039-208.271-0.059c-2.063,0-4.133-0.027-6.188,0.07c-2.502,0.117-3.436,0.699-3.666,2.313
		c-0.184,1.27-0.152,2.555-0.152,3.832c-0.006,109.434-0.006,218.863-0.006,328.297c0,0.895-0.031,1.793,0.041,2.688
		c0.217,2.641,0.936,3.152,4.646,3.293c1.496,0.059,3.002,0.031,4.502,0.031c45.971,0.023,91.939,0.059,137.908,0.066
		c61.545,0.012,123.088,0.004,184.633-0.004c2.246,0,4.496-0.047,6.738-0.156c1.492-0.07,2.469-0.73,2.594-1.715
		c0.207-1.656,0.273-3.32,0.273-4.98l0.012-276.461c0-91.898,0-183.793,0-275.689C796.043,7.759,796.055,6.351,796.023,4.942z
		 M681.883,448.728c-0.002,1.277-0.057,2.559-0.244,3.828c-0.123,0.836-0.977,1.395-2.207,1.508
		c-1.295,0.117-2.613,0.156-3.922,0.156c-33.189,0.008-66.381,0.004-99.57,0.004c-0.188,0-0.375,0-0.563,0
		c-5.209-0.094-5.674-0.414-5.807-4.027c-0.033-0.895-0.012-1.793-0.012-2.688c0-33.129,0-66.258,0.002-99.387
		c0-1.152-0.047-2.305,0.047-3.453c0.209-2.563,0.896-2.988,4.844-3.121c0.75-0.027,1.5-0.02,2.25-0.02
		c32.441,0,64.881,0,97.322,0.008c1.496,0,3.002,0.023,4.49,0.121c1.693,0.113,2.807,0.82,3.016,1.945
		c0.258,1.391,0.346,2.801,0.348,4.203c0.021,16.883,0.014,33.77,0.014,50.652C681.891,415.216,681.896,431.97,681.883,448.728z"/>
	<path fill-rule="evenodd" clip-rule="evenodd" fill="#FF9800" d="M2154.211,247.892c-1.395-9.555-2.996-19.078-5.176-28.555
		c-3.441-14.934-8.328-29.652-14.383-44.199c-6.727-16.156-15.047-31.93-25.32-47.188c-11.063-16.422-23.734-32.234-39.113-47.018
		c-10.887-10.467-22.918-20.246-35.867-29.527c-4.402-3.156-9.246-5.99-13.938-8.936c-9.969-6.262-20.711-11.844-32.02-16.895
		c-14.801-6.611-30.465-12.119-47.141-16.213c-20.988-5.154-42.605-8.189-64.957-8.252c-36.594-0.102-73.184-0.037-109.777-0.039
		c-1.313,0-2.629-0.016-3.938,0.057c-2.719,0.152-3.578,0.713-3.801,2.645c-0.16,1.4-0.113,2.813-0.113,4.221
		c-0.004,48.77-0.004,97.539-0.004,146.309c0,22.914-0.012,45.824,0.008,68.738c0.008,5.234,0.395,5.508,7.852,5.512
		c33.023,0.012,66.051,0.004,99.078,0.004c0.563,0,1.125,0.004,1.688-0.008c5.297-0.125,5.984-0.605,6.145-4.363
		c0.047-1.152,0.016-2.305,0.016-3.457c0-33.023,0-66.051,0.004-99.074c0-1.281-0.051-2.563,0.066-3.836
		c0.199-2.184,1.004-2.688,4.109-2.809c3.598-0.141,7.09,0.453,10.625,0.723c8.051,0.617,15.859,1.969,23.504,3.777
		c18.359,4.336,34.504,11.227,48.895,20.027c12.199,7.465,22.871,15.875,32.02,25.168c15.176,15.418,26.402,32.094,34.492,49.809
		c8.754,19.184,13.383,38.855,14.848,58.855c0.926,12.652,0.305,25.313-1.805,37.938c-2.102,12.617-5.41,25.055-10.367,37.289
		c-8.105,20.016-20.129,38.824-37.262,56.043c-12.102,12.164-26.445,22.906-43.797,31.699c-19.543,9.906-41.25,16.121-65.613,17.746
		c-1.492,0.098-2.996,0.156-4.492,0.148c-4.258-0.023-4.992-0.484-5.18-3.262c-0.09-1.277-0.039-2.559-0.039-3.84
		c-0.004-32.129-0.004-64.258-0.004-96.387c0-1.664,0.031-3.328-0.012-4.992c-0.109-4.117-0.543-4.414-6.348-4.496
		c-0.375-0.004-0.75,0-1.125,0c-33.215,0-66.43,0-99.641,0.004c-1.5,0-3.012,0-4.496,0.109c-1.785,0.133-2.715,0.715-2.902,1.969
		c-0.227,1.523-0.258,3.063-0.258,4.598c-0.012,35.586-0.008,71.168-0.008,106.754c0,35.457,0,70.914,0,106.371
		c0,1.152-0.031,2.305,0.02,3.457c0.168,3.617,0.879,4.086,6.383,4.195c1.688,0.031,3.375,0.012,5.066,0.012
		c31.336,0,62.676,0.008,94.012-0.004c11.258-0.008,22.488-0.41,33.672-1.34c16.289-1.352,32.098-4.098,47.34-8.188
		c30.598-8.211,57.563-20.328,81.219-35.867c7.699-5.059,15.188-10.258,22.18-15.797c10.793-8.555,20.727-17.539,29.703-27.004
		c11.938-12.59,22.438-25.723,31.414-39.426c7.281-11.117,13.719-22.445,19.281-34.004c5.328-11.07,9.813-22.309,13.543-33.68
		c3.359-10.246,6.098-20.57,8.195-30.969c1.41-6.969,2.848-13.934,3.496-20.965c0.516-5.613,1.699-11.211,1.836-16.828
		C2156.48,285.724,2156.965,266.794,2154.211,247.892z"/>
	<path fill-rule="evenodd" clip-rule="evenodd" fill="#FF9800" d="M1249.719,234.403c0-1.023,0.02-2.051-0.027-3.07
		c-0.027-0.641-0.094-1.285-0.273-1.906c-0.281-0.973-1.156-1.637-2.648-1.699c-2.246-0.098-4.496-0.141-6.742-0.141
		c-69.238-0.008-138.473-0.008-207.707-0.012c-2.063,0-4.133,0.027-6.184-0.082c-2.426-0.133-3.293-0.738-3.484-2.434
		c-0.16-1.402-0.121-2.813-0.121-4.223c-0.008-38.012-0.004-76.023-0.004-114.035c-0.004-33.148,0-66.297-0.008-99.447
		c-0.004-1.404-0.016-2.818-0.203-4.215c-0.168-1.244-1.07-1.848-2.844-1.992c-1.484-0.121-2.996-0.141-4.492-0.141
		c-33.023-0.008-66.043-0.008-99.066,0c-1.5,0-3.008,0.016-4.492,0.135c-1.754,0.143-2.688,0.758-2.832,2.004
		c-0.191,1.654-0.203,3.32-0.203,4.982c-0.012,92.023-0.008,184.049-0.008,276.068c0,92.023,0,184.047,0,276.07
		c0,1.406-0.016,2.816,0.027,4.223c0.023,0.637,0.098,1.281,0.281,1.902c0.246,0.824,1.059,1.379,2.266,1.508
		c1.289,0.137,2.609,0.191,3.918,0.199c4.316,0.023,8.629,0.008,12.945,0.008c103.758,0,207.516,0,311.277,0
		c2.25,0,4.508,0.031,6.75-0.07c2.695-0.125,3.555-0.742,3.77-2.66c0.145-1.273,0.102-2.559,0.102-3.84
		C1249.719,452.493,1249.719,343.446,1249.719,234.403z M1134.855,448.88c0,5.324-0.031,5.344-7.813,5.344
		c-32.25,0.008-64.496,0.008-96.746,0c-7.742,0-7.766-0.016-7.766-5.316c-0.012-17.008-0.004-34.02-0.004-51.027
		c0-17.012-0.008-34.023,0.004-51.031c0-5.363,0.023-5.379,7.727-5.383c32.25-0.008,64.496-0.008,96.746,0
		c7.781,0.004,7.852,0.051,7.852,5.355C1134.867,380.841,1134.867,414.86,1134.855,448.88z"/>
	<path fill-rule="evenodd" clip-rule="evenodd" fill="#FF9800" d="M1645.273,378.325c-0.887-6.633-1.922-13.234-3.473-19.801
		c-5.969-25.258-17.516-49.199-36.434-71.371c-1.543-1.805-1.438-3.168,0.051-4.938c4.762-5.656,9.211-11.426,13.098-17.406
		c6.328-9.734,11.484-19.738,15.691-29.98c4.309-10.496,7.359-21.168,9.332-31.973c1.086-5.961,2.203-11.953,2.418-17.945
		c0.395-11.121,0.734-22.246-0.699-33.375c-1.07-8.293-2.531-16.535-4.746-24.711c-5.793-21.414-15.621-41.885-30.891-61.074
		c-10.531-13.238-23.223-25.357-39.004-35.973c-12.969-8.721-27.5-15.824-44.02-21.031c-15.719-4.951-32.219-7.635-49.551-7.658
		c-35.652-0.047-71.301-0.018-106.953-0.018c-1.5,0.002-3.008-0.01-4.496,0.09c-2.176,0.143-3.094,0.713-3.297,2.133
		c-0.184,1.27-0.172,2.555-0.172,3.834c-0.008,16.895-0.004,33.789-0.004,50.684c0,17.023-0.004,34.047,0.004,51.068
		c0,1.281-0.016,2.563,0.168,3.836c0.203,1.402,1.145,2.016,3.297,2.133c2.055,0.117,4.125,0.094,6.188,0.098
		c33.961,0.004,67.922,0.102,101.883-0.043c13.918-0.063,25.156,3.719,34.504,10.328c7.5,5.305,12.973,11.594,16.598,18.555
		c5.984,11.484,8.59,23.238,6.582,35.461c-1.113,6.797-3.137,13.387-6.637,19.766c-4.059,7.406-9.867,14.121-18.211,19.637
		c-8.805,5.82-19.258,9.25-31.84,9.055c-2.625-0.039-5.254,0.008-7.879,0.008c-32.461,0.004-64.922-0.008-97.383,0.008
		c-6.938,0.004-7.262,0.234-7.266,5.012c-0.016,34.555-0.012,69.113,0,103.672c0,1.02,0.02,2.051,0.195,3.063
		c0.211,1.238,1.082,1.875,2.855,1.984c2.047,0.129,4.117,0.141,6.18,0.141c29.27,0.008,58.543,0.004,87.813,0.004
		c5.254,0,10.508-0.055,15.762,0.027c10.926,0.164,20.527,2.773,28.777,7.625c7.938,4.664,13.949,10.348,18.34,16.816
		c6.484,9.551,9.352,19.672,10.027,30.121c0.227,3.465-0.402,6.891-0.844,10.336c-0.945,7.34-3.523,14.379-7.691,21.148
		c-3.359,5.453-7.668,10.535-13.406,15.02c-3.738,2.918-7.961,5.434-12.848,7.395c-7.098,2.852-14.703,4.27-23.043,4.246
		c-34.898-0.09-69.801-0.043-104.699-0.031c-7.125,0.004-7.414,0.191-7.418,4.906c-0.016,34.688-0.016,69.371,0.004,104.059
		c0,4.715,0.297,4.906,7.387,4.906c36.586,0.008,73.176,0,109.766-0.016c2.813,0,5.648,0.023,8.434-0.199
		c16.387-1.305,31.902-4.57,46.496-9.836c19.199-6.934,35.125-16.633,49.051-27.824c16.391-13.172,28.879-28.016,38.465-44.004
		c8.77-14.625,15.172-29.707,19.195-45.27c2.48-9.59,4.469-19.234,4.98-28.941C1646.5,400.837,1646.781,389.579,1645.273,378.325z"
		/>
	<path fill-rule="evenodd" clip-rule="evenodd" fill="#FF9800" d="M342.246,456.771c-0.219-1.73-1.02-2.324-3.445-2.449
		c-2.24-0.117-4.5-0.09-6.75-0.09c-68.869-0.004-137.738-0.004-206.607-0.008c-2.063,0-4.133,0.023-6.188-0.078
		c-2.172-0.105-3.08-0.691-3.229-2.145c-0.168-1.656-0.139-3.324-0.139-4.988c-0.004-145.797-0.004-291.594-0.004-437.393
		c0-1.408,0.018-2.816-0.016-4.225c-0.018-0.766-0.045-1.539-0.211-2.295c-0.277-1.256-1.094-1.842-2.902-1.973
		c-1.674-0.121-3.369-0.123-5.057-0.123C74.859,0.999,42.021,0.999,9.182,1.003c-1.5,0-3.008-0.016-4.5,0.076
		c-2.379,0.145-3.305,0.74-3.5,2.43C0.992,5.163,1.029,6.833,1.029,8.497c-0.006,92.035-0.004,184.07-0.004,276.105
		c-0.008,0-0.018,0-0.025,0c0,57.219,0.002,114.438,0,171.652c0,35.332-0.002,70.66,0.008,105.988c0,1.277,0.027,2.563,0.24,3.832
		c0.213,1.258,1.102,1.859,2.885,1.977c1.863,0.121,3.746,0.117,5.621,0.117c19.516,0.008,39.031,0.008,58.547,0.008
		c88.385,0,176.77,0,265.154-0.004c8.895,0,8.906-0.008,8.906-6.184c0.004-33.922,0.004-67.844-0.002-101.766
		C342.359,459.071,342.389,457.915,342.246,456.771z"/>
</g>
</svg>
