<?xml version="1.0" encoding="utf-8"?>
<!-- Generator: Adobe Illustrator 16.0.0, SVG Export Plug-In . SVG Version: 6.00 Build 0)  -->
<!DOCTYPE svg PUBLIC "-//W3C//DTD SVG 1.1//EN" "http://www.w3.org/Graphics/SVG/1.1/DTD/svg11.dtd">
<svg version="1.1" id="Layer_1" xmlns="http://www.w3.org/2000/svg" xmlns:xlink="http://www.w3.org/1999/xlink" x="0px" y="0px"
	 width="4896.811px" height="3113.269px" viewBox="51.594 629.364 4896.811 3113.269"
	 enable-background="new 51.594 629.364 4896.811 3113.269" xml:space="preserve">
<g>
	<path fill="#FFFFFF" d="M3686.323,1942.481c0,31.549-0.115,63.1,0.041,94.646c0.088,17.702,1.209,18.767,19.066,18.791
		c59.221,0.076,118.443,0.018,177.664,0.043c9.951,0.006,19.774,0.183,29.467,3.582c15.342,5.379,23.262,16.172,25.252,31.776
		c0.627,4.916,0.59,9.937,0.592,14.909c0.039,50.922,0.029,101.84,0.01,152.758c0,3.875,0.013,7.758-0.271,11.617
		c-1.397,19.125-12.315,32.113-31.055,35.772c-7.527,1.47-15.404,1.599-23.123,1.615c-56.453,0.125-112.906,0.063-169.359,0.074
		c-4.428,0-8.885-0.222-13.276,0.19c-10,0.941-13.854,4.654-14.841,14.353c-0.446,4.386-0.192,8.85-0.192,13.276
		c-0.011,57.56-0.98,115.145,0.407,172.67c0.675,27.791-19.446,49.381-48.215,48.866c-50.902-0.909-101.838-0.148-152.754-0.316
		c-32.896-0.107-49.082-16.1-49.221-48.955c-0.229-57.562-0.06-115.123-0.066-172.685c0-4.426,0.193-8.875-0.141-13.279
		c-0.806-10.637-3.402-13.141-14.416-14.01c-3.854-0.305-7.744-0.113-11.619-0.113c-53.688-0.002-107.375-0.002-161.06,0
		c-3.321,0-6.641,0.015-9.967-0.002c-39.561-0.192-53.949-14.59-53.994-54.186c-0.051-47.047-0.016-94.09-0.012-141.137
		c0-3.872-0.113-7.758,0.131-11.617c1.742-28.033,17.193-43.816,45.279-44.923c19.896-0.782,39.842-0.242,59.771-0.248
		c42.061-0.018,84.125,0.032,126.188-0.021c19.25-0.025,19.785-0.469,19.813-19.316c0.08-59.773,0.039-119.55,0.006-179.323
		c-0.004-7.762,0.303-15.383,2.438-22.993c5.082-18.094,14.974-27.347,33.394-29.723c6.01-0.776,12.146-0.776,18.228-0.783
		c47.041-0.06,94.086-0.037,141.133-0.024c4.426,0.001,8.863-0.065,13.279,0.168c26.028,1.391,40.793,15.979,41.233,42.245
		c0.543,32.093,0.131,64.2,0.131,96.301C3686.281,1942.481,3686.304,1942.481,3686.323,1942.481z"/>
	<path fill="#FFFFFF" d="M1436.287,2066.125c106.788,0,213.577-0.002,320.364,0.002c4.426,0,8.86-0.145,13.279,0.063
		c24.854,1.17,41.444,17.394,42.08,42.074c0.541,21.011,0.148,42.047,0.153,63.073c0.013,32.645-0.832,65.316,0.245,97.928
		c1.111,33.658-19.428,48.797-47.316,48.867c-5.532,0.012-11.063,0.182-16.595,0.184c-210.258,0.01-420.516,0.014-630.772-0.023
		c-7.183,0-14.42,0.03-21.541-0.783c-21.71-2.481-36.905-17.962-37.099-39.729c-0.496-56.432-0.559-112.875,0.03-169.307
		c0.281-26.94,17.948-42.287,46.845-42.312C1216.072,2066.068,1326.179,2066.125,1436.287,2066.125z"/>
	<path fill="#FFFFFF" d="M4932.201,2138.524c-6.086-8.627-13.146-16.402-20.655-23.785c-21.312-20.952-42.793-41.733-63.926-62.86
		c-163.258-163.186-326.455-326.428-489.66-489.666c-100.19-100.209-200.271-200.533-300.688-300.516
		c-9.94-9.898-14.84-19.89-11.387-33.941c7.426-30.267,10.185-61.084,9.535-82.653c-0.191-88.765-15.541-164.54-50.717-235.862
		c-29.803-60.433-71.805-111.328-121.938-155.898c-39.586-35.193-83.131-64.33-131.686-85.55
		c-67.017-29.29-137.05-41.258-210.267-37.869c-41.754,1.935-82.834,7.218-122.756,18.616
		c-139.301,39.77-243.582,124.367-309.412,252.984c-70.318,137.374-72.9,279.576-17.693,422.716
		c38.826,100.679,108.646,176.098,198.517,233.873c80.311,51.63,168.254,77.324,263.834,76.459
		c42.799-0.385,84.948-6.218,126.409-16.456c12.795-3.16,22.802-0.372,32.045,7.895c3.716,3.316,7.162,6.932,10.677,10.463
		c90.594,91.02,181.043,182.186,271.815,273.027c68.074,68.125,136.599,135.8,204.828,203.771
		c7.043,7.013,14.295,14.075,19.979,22.15c20.533,29.155,23.611,59.982,7.23,92.279c-5.346,10.537-12.732,19.31-21.008,27.586
		c-189.092,189.062-378.119,378.184-567.23,567.223c-7.422,7.42-15.198,14.597-23.45,21.063
		c-28.438,22.279-64.041,23.328-94.281,3.373c-13.047-8.604-23.892-19.668-34.842-30.637
		c-251.533-251.953-502.984-503.989-754.634-755.831c-374.834-375.125-749.805-750.112-1124.721-1125.154
		c-35.22-35.231-70.494-70.413-105.697-105.662c-19.239-19.267-41.685-30.971-69.63-29.236
		c-24.52,1.519-43.844,13.499-60.824,30.485c-399.997,400.167-800.053,800.279-1200.096,1200.4
		c-29.358,29.364-58.975,58.475-87.983,88.18c-22.793,23.336-36.182,50.347-27.757,84.108c4.989,20.004,17.238,35.83,31.442,49.985
		c194.491,193.779,387.585,388.957,582.854,581.964c91.738,90.676,182.358,182.483,273.87,273.397
		c11.497,11.424,15.218,23.506,12.075,38.879c-14.56,71.188-11.151,141.861,5.872,212.248
		c24.287,100.406,75.188,184.988,151.874,253.717c77.09,69.088,167.318,110.105,270.137,124.269
		c65.781,9.059,130.587,4.578,194.089-12.701c108.573-29.545,198.001-89.178,267.313-178.08
		c45.933-58.912,77.02-124.934,92.465-198.211c10.583-50.195,12.667-100.783,9.358-151.879
		c-3.95-60.979-19.005-118.885-45.355-173.906c-36.652-76.535-91.342-138.1-158.809-188.537
		c-101.532-75.904-215.465-107.358-341.793-93.684c-26.458,2.863-52.572,7.344-78.591,12.629
		c-14.344,2.914-26.132-1.346-36.095-11.689c-3.839-3.981-7.81-7.847-11.714-11.768c-89.832-90.205-179.563-180.508-269.523-270.58
		c-52.021-52.084-104.474-103.736-156.596-155.726c-19.59-19.539-39.185-39.1-58.063-59.317
		c-22.083-23.648-33.397-50.858-22.721-83.526c5.978-18.288,17.652-32.932,31.129-46.406
		c173.026-172.972,345.956-346.04,518.979-519.014c21.131-21.124,41.99-42.591,64.175-62.566
		c26.812-24.145,57.915-28.814,90.948-13.995c14.803,6.64,26.016,18.602,37.351,30.005
		c138.556,139.372,278.418,277.437,416.295,417.488c69.899,71.003,140.778,141.046,211.226,211.513
		c449.693,449.806,899.388,899.611,1349.119,1349.382c9.384,9.379,18.203,19.397,28.947,27.328
		c21.836,16.104,45.797,20.752,72.242,14.139c20.311-5.082,35.287-18.08,49.393-32.197c29.73-29.754,58.74-60.225,88.523-89.922
		c326.51-325.59,651.115-653.09,978.761-977.551c47.597-47.132,94.922-94.533,142.086-142.101
		c27.271-27.505,55.777-53.829,81.385-82.959C4953.562,2213.762,4955.58,2171.674,4932.201,2138.524z M3707.461,1327.407
		c-49.037,39.32-106.582,55.771-169.162,51.396c-58.192-4.069-109.196-26.329-152.19-66.202
		c-16.293-15.11-30.533-31.958-42.938-50.378c-3.728-5.332-5.99-11.486-9.535-16.922c-17.465-33.372-27.367-68.958-28.535-106.504
		c-1.207-38.678,6.072-76.077,23.109-111.029c38.844-79.688,101.977-128.992,189.428-142.937
		c76.873-12.258,146.004,8.744,204.41,60.961c42.178,37.713,69.521,84.53,78.664,140.662
		C3816.728,1184.742,3784.677,1265.496,3707.461,1327.407z M1195.475,3238.521c-2.112-121.814,97.902-247.357,248.896-247.852
		c146.908-0.48,250.872,118.039,250.283,251.463c-0.575,130.588-105.442,248.471-250.509,248.229
		C1297.994,3490.119,1191.932,3366.119,1195.475,3238.521z"/>
	<path fill="#FFFFFF" d="M3333.634,1245.3c5.6,4.277,8.918,9.838,9.534,16.922C3337.951,1257.728,3334.347,1252.332,3333.634,1245.3
		z"/>
</g>
</svg>
