<?xml version="1.0" encoding="utf-8"?>
<!-- Generator: Adobe Illustrator 16.0.0, SVG Export Plug-In . SVG Version: 6.00 Build 0)  -->
<!DOCTYPE svg PUBLIC "-//W3C//DTD SVG 1.1//EN" "http://www.w3.org/Graphics/SVG/1.1/DTD/svg11.dtd">
<svg version="1.1" id="Layer_1" xmlns="http://www.w3.org/2000/svg" xmlns:xlink="http://www.w3.org/1999/xlink" x="0px" y="0px"
	 width="4902.512px" height="1065.768px" viewBox="48.744 1653.118 4902.512 1065.768"
	 enable-background="new 48.744 1653.118 4902.512 1065.768" xml:space="preserve">
<g>
	<path fill="#FFFFFF" d="M48.806,1973.289c0-97.971,0-195.943,0-293.917c0-4.427-0.176-8.865,0.064-13.281
		c0.614-11.337,1.471-12.459,12.535-12.705c14.938-0.338,29.893-0.347,44.833-0.078c12.952,0.231,13.771,1.061,13.838,14.678
		c0.171,35.428,0.062,70.854,0.083,106.279c0.002,4.427,0.11,8.852,0.199,13.28c0.112,5.436,2.987,8.015,8.349,8.03
		c3.32,0.014,6.64,0.108,9.961,0.11c58.674,0.007,117.346,0.007,176.018-0.002c3.322,0,6.641-0.104,9.962-0.146
		c5.503-0.063,7.963-3.114,8.104-8.346c0.116-4.424,0.186-8.852,0.188-13.279c0.02-34.871-0.073-69.743,0.056-104.616
		c0.055-15.468,0.496-15.791,15.812-15.917c14.391-0.122,28.788,0.169,43.17-0.166c8.294-0.191,12.471,3.021,12.271,11.54
		c-0.116,4.977,0.165,9.961,0.165,14.941c0.011,196.498-0.019,392.997,0.043,589.493c0.008,27.713-0.716,24.258-24.45,24.415
		c-11.62,0.077-23.248-0.177-34.867,0.029c-8.11,0.142-12.659-2.823-12.199-11.585c0.232-4.417,0.003-8.854,0.003-13.283
		c-0.001-124.542-0.001-249.082-0.001-373.626c0-3.874,0.038-7.747-0.013-11.623c-0.206-16.354-0.215-16.596-16.839-16.628
		c-59.78-0.107-119.561-0.107-179.341,0c-16.313,0.029-16.531,0.271-16.542,16.869c-0.07,128.968-0.047,257.934-0.063,386.907
		c-0.003,22.924-0.021,22.931-22.295,22.952c-10.519,0.01-21.033,0.024-31.549-0.025c-16.884-0.084-17.199-0.416-17.449-18.078
		c-0.08-5.533-0.044-11.07-0.044-16.604C48.804,2163.699,48.806,2068.498,48.806,1973.289z"/>
	<path fill="#FFFFFF" d="M2643.24,2221.113c52.023,0,104.048-0.004,156.072,0.006c4.426,0.004,8.853,0.113,13.274,0.193
		c4.769,0.079,7.287,2.945,7.341,7.277c0.213,18.811,0.2,37.622,0.09,56.434c-0.033,5.222-3.035,8.119-8.34,8.285
		c-4.98,0.152-9.961,0.253-14.938,0.258c-78.59,0.013-157.176,0.007-235.766,0.01c-2.771,0-5.535-0.028-8.303,0.012
		c-16.386,0.245-16.582,0.248-16.644,16.895c-0.131,34.864-0.106,69.732-0.006,104.602c0.057,18.45,0.192,18.545,18.342,18.563
		c81.91,0.074,163.822,0.089,245.729,0.129c20.181,0.011,20.207,0.013,20.209,19.89c0.013,80.802,0.004,161.603,0.004,242.409
		c0,3.316,0.123,6.646-0.057,9.959c-0.602,11.272-1.483,12.384-12.531,12.685c-11.61,0.32-23.241,0.086-34.864,0.086
		c-95.744,0-191.492,0.01-287.238-0.006c-20.318-0.002-20.342-0.041-20.402-19.814c-0.037-12.729-0.19-25.463,0.07-38.182
		c0.269-13.017,1.079-13.625,14.537-14.021c3.318-0.1,6.64-0.021,9.962-0.021c78.591,0,157.179,0.003,235.77-0.004
		c4.43,0,8.86-0.185,13.28-0.037c6.9,0.228,10.185-2.812,10.06-9.86c-0.146-8.299,0.141-16.6,0.135-24.902
		c-0.01-29.33-0.004-58.664-0.121-87.994c-0.07-17.702-0.166-17.793-18.906-17.805c-79.695-0.041-159.389,0.008-239.088-0.033
		c-28.315-0.014-25.654,2.15-25.679-26.186c-0.069-78.033-0.024-156.07-0.024-234.105c0-3.322-0.07-6.645,0.022-9.963
		c0.403-14.448,0.458-14.688,15.294-14.713C2534.766,2221.058,2589.004,2221.116,2643.24,2221.113z"/>
	<path fill="#FFFFFF" d="M2393.103,2471.345c0,74.158,0,148.318,0,222.479c0,2.769,0.037,5.537-0.022,8.301
		c-0.343,16.244-0.528,16.625-17.022,16.636c-106.813,0.069-213.629,0.069-320.442,0.008c-16.906-0.01-17.387-0.503-17.392-18.084
		c-0.051-153.854-0.03-307.713-0.015-461.567c0-3.318,0.039-6.646,0.34-9.945c0.479-5.195,3.443-7.939,8.715-7.953
		c17.71-0.051,35.42-0.102,53.128-0.075c5.272,0.013,8.276,2.855,8.549,8.079c0.317,6.076,0.39,12.17,0.393,18.255
		c0.021,126.186,0.009,252.366,0.028,378.55c0.004,20.673,0.06,20.716,20.905,20.728c57.559,0.021,115.115,0.009,172.675-0.006
		c3.871,0,7.744-0.08,11.614-0.216c5.395-0.192,7.963-3.106,7.979-8.446c0.015-4.982,0.121-9.959,0.123-14.943
		c0.027-127.289,0.05-254.581,0.076-381.87c0.004-19.999,0.019-20.059,19.692-20.188c12.728-0.084,25.466-0.25,38.184,0.121
		c11.104,0.319,11.841,1.315,12.414,12.715c0.221,4.417,0.077,8.854,0.077,13.279
		C2393.103,2321.918,2393.103,2396.627,2393.103,2471.345z"/>
	<path fill="#FFFFFF" d="M1790.557,2150.68c-53.7-0.005-107.396,0.047-161.096-0.03c-17.277-0.027-17.42-0.177-17.427-17.686
		c-0.047-106.293-0.025-212.586-0.018-318.873c0-3.321,0.088-6.639,0.163-9.961c0.119-5.358,2.835-8.181,8.232-8.197
		c17.713-0.047,35.429-0.014,53.141-0.104c6.13-0.03,9.251,3.001,9.525,8.952c0.229,4.972,0.239,9.961,0.242,14.939
		c0.015,76.947-0.199,153.9,0.115,230.848c0.137,33.542-2.254,28.384,28.115,28.888c9.961,0.165,19.937,0.258,29.892-0.069
		c12.095-0.399,13.027-1.163,13.149-13.704c0.275-28.23,0.113-56.467,0.135-84.698c0.007-11.072,0.196-22.146-0.005-33.213
		c-0.126-6.884,2.738-10.307,9.734-10.281c16.606,0.057,33.215,0.11,49.82-0.034c7.689-0.067,10.85,3.366,10.744,11.063
		c-0.244,17.708-0.044,35.431-0.03,53.143c0.018,21.587-0.155,43.184,0.114,64.769c0.138,11.161,1.493,12.638,12.378,12.909
		c15.489,0.388,30.999-0.115,46.496,0.146c8.464,0.141,12.201-3.443,11.821-11.898c-0.25-5.519,0.129-11.067,0.13-16.603
		c0.021-76.948,0.023-153.898,0.033-230.848c0-3.875-0.124-7.758,0.082-11.623c0.618-11.668,1.126-12.438,12.374-12.652
		c15.496-0.29,31.004-0.267,46.501-0.02c11.75,0.188,12.308,0.901,12.939,11.989c0.219,3.864,0.099,7.747,0.099,11.623
		c0.005,102.97,0.007,205.937,0.007,308.906c0,3.319,0.123,6.65-0.068,9.963c-0.632,10.934-1.479,12.114-12.926,12.246
		c-24.909,0.285-49.823,0.104-74.734,0.109C1850.346,2150.682,1820.45,2150.682,1790.557,2150.68z"/>
	<path fill="#FFFFFF" d="M3316.895,1971.691c0-97.952,0-195.907,0-293.859c0-3.875-0.135-7.756,0.051-11.62
		c0.541-11.275,1.463-12.55,12.428-12.804c15.486-0.36,30.988-0.349,46.479-0.057c10.617,0.198,11.955,1.77,12.465,12.854
		c0.328,7.181,0.222,14.387,0.222,21.577c0.014,170.452,0.014,340.9,0.006,511.354c-0.002,24.563-0.492,21.849,21.215,21.854
		c80.244,0.035,160.488,0.011,240.73,0.02c4.426,0.003,8.852,0.114,13.278,0.134c5.406,0.021,8.32,2.835,8.363,8.105
		c0.146,18.262,0.152,36.521,0.111,54.779c-0.011,5.916-2.9,9.31-9.097,9.376c-3.873,0.038-7.746,0.173-11.616,0.173
		c-104.597,0.015-209.191,0.015-313.787,0.012c-3.318,0-6.639-0.135-9.957-0.096c-7.695,0.086-11-3.9-10.844-11.341
		c0.088-4.428-0.048-8.853-0.048-13.282C3316.895,2169.811,3316.895,2070.752,3316.895,1971.691z"/>
	<path fill="#FFFFFF" d="M4098.477,1903.435c-0.008,29.329-0.305,58.667,0.145,87.993c0.172,11.231-2.842,20.055-11.047,28.141
		c-40.207,39.627-80.084,79.584-119.828,119.67c-7.102,7.158-14.817,10.968-24.944,10.759c-14.938-0.313-29.892-0.277-44.824,0
		c-9.496,0.176-16.854-3.261-23.549-10.002c-40.554-40.843-81.273-81.526-122.129-122.064c-6.767-6.714-9.757-14.194-9.732-23.658
		c0.17-60.878,0.013-121.759,0.136-182.637c0.034-15.749,0.508-16.066,15.604-16.257c13.832-0.171,27.674-0.202,41.508,0.021
		c14.285,0.237,14.531,0.402,14.56,15.4c0.104,47.594,0.594,95.2-0.326,142.781c-0.35,18.118,5.439,31.684,18.479,43.975
		c22.945,21.629,44.854,44.355,67.226,66.598c3.531,3.511,6.93,7.222,10.836,10.266c7.908,6.163,12.658,5.986,20.744-0.415
		c3.024-2.396,5.705-5.237,8.448-7.97c25.095-24.994,49.966-50.22,75.361-74.901c8.574-8.334,12.299-17.431,12.178-29.41
		c-0.477-46.485-0.256-92.979-0.291-139.468c-0.002-4.432-0.092-8.86,0.068-13.282c0.451-12.896,0.67-13.335,13.037-13.558
		c14.941-0.27,29.894-0.264,44.828,0.032c12.385,0.246,13.193,0.899,13.359,13.353c0.328,24.346,0.135,48.701,0.155,73.05
		C4098.481,1889.043,4098.477,1896.237,4098.477,1903.435z"/>
	<path fill="#FFFFFF" d="M4169.713,1973.423c0-52.017-0.008-104.031,0.006-156.046c0-4.427,0.067-8.854,0.211-13.271
		c0.174-5.276,2.797-8.175,8.256-8.2c3.873-0.014,7.748-0.127,11.619-0.127c105.688-0.007,211.375-0.007,317.069-0.007
		c2.765,0,5.535,0.12,8.295-0.01c6.801-0.322,10.358,2.584,10.328,9.652c-0.08,17.155-0.121,34.307,0.008,51.461
		c0.056,7.232-3.953,9.707-10.396,9.802c-4.977,0.069-9.957,0.151-14.938,0.151c-77.469,0.012-154.938,0.006-232.404,0.012
		c-4.428,0-8.865-0.149-13.278,0.095c-11.285,0.628-12.437,1.493-12.783,12.532c-0.399,12.712-0.135,25.446-0.14,38.177
		c-0.004,69.724-0.004,139.44-0.008,209.161c-0.002,4.429-0.164,8.856-0.098,13.281c0.115,7.78-3.865,10.713-11.363,10.621
		c-16.041-0.207-32.098,0.209-48.135-0.144c-11.252-0.25-12.08-1.068-12.158-12.801c-0.223-34.856-0.09-69.722-0.094-104.58
		C4169.705,2013.26,4169.713,1993.341,4169.713,1973.423z"/>
	<path fill="#FFFFFF" d="M901.266,1973.377c-0.002-52-0.007-103.996,0.006-155.993c0.002-4.423,0.071-8.851,0.229-13.27
		c0.188-5.255,2.814-8.182,8.256-8.233c3.315-0.035,6.635-0.106,9.955-0.108c106.209-0.004,212.419,0,318.627,0
		c2.766,0,5.537,0.134,8.296,0c6.853-0.332,10.345,2.724,10.328,9.708c-0.044,17.146-0.074,34.296-0.005,51.445
		c0.027,7.18-3.938,9.646-10.481,9.636c-6.637-0.006-13.272,0.263-19.912,0.263c-75.782,0.021-151.565,0.012-227.352,0.021
		c-4.979,0-9.959,0.153-14.937,0.074c-7.591-0.113-11.222,3.395-10.754,11.1c0.201,3.307,0.061,6.635,0.059,9.957
		c-0.063,81.316-0.132,162.632-0.201,243.946c-0.004,3.318,0.088,6.644-0.108,9.947c-0.303,5.072-2.766,8.506-8.163,8.543
		c-18.249,0.137-36.501,0.14-54.751,0.07c-6.13-0.023-8.905-3.499-8.905-9.499c0.004-4.977-0.174-9.953-0.174-14.932
		C901.26,2075.162,901.266,2024.268,901.266,1973.377z"/>
	<path fill="#FFFFFF" d="M2465.207,1972.554c0-52.018-0.007-104.029,0.015-156.044c0-4.418,0.08-8.85,0.3-13.265
		c0.227-4.543,2.688-7.108,7.296-7.271c4.424-0.155,8.851-0.194,13.274-0.196c104.58-0.007,209.161-0.015,313.739,0
		c20.418,0.002,20.438,0.047,20.472,21.28c0.02,12.729-0.162,25.454-0.007,38.18c0.095,7.476-2.868,11.476-10.729,11.211
		c-4.42-0.147-8.851,0.05-13.275,0.056c-79.125,0.113-158.248,0.221-237.371,0.331c-0.555,0.005-1.108,0-1.664,0.005
		c-21.227,0.079-21.264,0.079-21.268,20.722c-0.012,79.128,0.053,158.253-0.029,237.38c-0.027,27.791,2.908,25.664-26.043,25.733
		c-10.512,0.022-21.032,0.22-31.537-0.08c-11.928-0.337-12.768-1.279-13.105-13.706c-0.244-8.846-0.064-17.707-0.064-26.559
		C2465.207,2064.404,2465.207,2018.477,2465.207,1972.554z"/>
	<path fill="#FFFFFF" d="M3672.404,1973.4c-0.004,51.47,0.002,102.938-0.008,154.406c-0.002,4.426-0.07,8.854-0.168,13.279
		c-0.129,5.984-3.168,9.337-9.205,9.367c-17.705,0.09-35.41,0.075-53.117,0.028c-5.334-0.017-8.11-2.854-8.254-8.198
		c-0.086-3.319-0.182-6.638-0.182-9.957c-0.014-105.703-0.01-211.406-0.008-317.109c0-2.213-0.07-4.434,0.049-6.639
		c0.598-11.408,1.312-12.477,12.414-12.695c16.045-0.314,32.103,0.044,48.146-0.104c6.955-0.063,10.207,3.112,10.213,9.938
		c0.006,4.428,0.112,8.854,0.112,13.283C3672.404,1870.466,3672.404,1921.935,3672.404,1973.4z"/>
	<path fill="#FFFFFF" d="M3246.711,2093.487c-0.199-13.214-0.627-13.48-14.406-13.952c-4.424-0.146-8.857-0.045-13.283-0.045
		c-77.482-0.004-154.961,0-232.443,0c-3.875,0-7.756-0.183-11.618,0c-8.154,0.382-12.345-2.852-12.195-11.541
		c0.271-16.045,0.162-32.096,0.088-48.146c-0.035-7.457,3.125-11.395,10.938-11.087c4.42,0.177,8.854-0.021,13.282-0.021
		c78.586-0.003,157.175-0.003,235.765-0.016c4.979,0,9.957-0.109,14.938-0.164c6.207-0.066,8.922-3.42,8.9-9.4
		c-0.011-3.321,0.092-6.645,0.092-9.962c0.008-58.111,0.008-116.222-0.014-174.332c0-3.872-0.062-7.751-0.261-11.615
		c-0.233-4.575-2.78-7.054-7.344-7.229c-4.424-0.167-8.853-0.197-13.277-0.197c-52.024-0.013-104.047-0.009-156.067-0.009
		c-47.597,0-95.193,0-142.789,0c-7.746,0-15.496-0.17-23.242,0.048c-12.191,0.336-12.607,0.871-13.043,13.563
		c-0.074,2.209-0.004,4.427-0.006,6.64c-0.041,105.153-0.082,210.306-0.123,315.454c0,2.217-0.08,4.438,0.063,6.639
		c0.695,10.938,1.668,11.938,12.863,12.501c4.416,0.224,8.852,0.064,13.279,0.064c94.082,0,188.17,0,282.256,0.007
		c11.065,0,22.139,0.273,33.203,0.009c13.596-0.325,14.211-0.914,14.434-14.039
		C3246.941,2122.271,3246.928,2107.875,3246.711,2093.487z M2962.852,1882.518c0.25-15.021,0.654-15.399,16.328-15.594
		c14.379-0.181,28.768-0.051,43.149-0.051c43.148,0,86.298,0,129.443,0.003c3.873,0.004,7.748,0.158,11.617,0.063
		c7.446-0.176,11.205,3.005,11.116,10.823c-0.168,15.48,0.332,30.975-0.067,46.451c-0.316,12.135-1.183,12.944-13.726,13.04
		c-30.975,0.238-61.957,0.081-92.938,0.081c0,0.008,0,0.016,0,0.022c-29.316,0-58.637,0.099-87.955-0.036
		c-16.535-0.079-16.781-0.39-16.988-16.637C2962.672,1907.963,2962.641,1895.236,2962.852,1882.518z"/>
	<path fill="#FFFFFF" d="M4951.252,2090.651c0.139-7.753-3.183-11.188-10.752-11.069c-4.424,0.071-8.853-0.092-13.275-0.092
		c-78.559,0-157.123,0.01-235.682,0.012c-4.429,0-8.857-0.182-13.277-0.04c-7.545,0.247-11.123-2.987-10.975-10.812
		c0.25-12.719-0.006-25.448,0.02-38.174c0.049-21.664,0.074-21.703,22.08-21.707c80.775-0.024,161.549,0.017,242.32-0.039
		c19.387-0.014,19.469-0.131,19.479-18.84c0.041-58.093,0.041-116.184,0-174.273c-0.013-19.775-0.084-19.832-20.354-19.837
		c-105.117-0.019-210.233-0.009-315.352-0.009c-2.768,0-5.547,0.206-8.295-0.021c-7.887-0.656-11.131,3.285-11.084,10.743
		c0.014,3.319-0.074,6.637-0.074,9.956c-0.006,104.566-0.006,209.127,0,313.688c0,3.321,0.115,6.645,0.074,9.959
		c-0.086,7.797,4.01,10.896,11.461,10.569c3.867-0.169,7.746,0.015,11.619,0.015c51.449,0.002,102.902,0,154.354,0
		c52.004,0.002,104.008,0.002,156.015,0c3.875,0,7.746-0.094,11.617-0.034c6.944,0.097,9.99-3.438,9.974-10.204
		C4951.098,2123.843,4950.951,2107.244,4951.252,2090.651z M4667.446,1879.441c0.272-11.245,1.037-11.712,12.539-12.583
		c1.651-0.128,3.313-0.161,4.972-0.158c59.651,0.055,119.313,0.044,178.967,0.234c15.817,0.051,16.442,0.954,16.498,17.201
		c0.047,12.703,0.135,25.411-0.021,38.113c-0.16,13.8-1.09,14.925-15.313,15.026c-30.383,0.216-60.765,0.067-91.146,0.073
		c-29.83,0.01-59.655,0.104-89.485-0.029c-16.578-0.076-16.929-0.484-17.088-16.45
		C4667.231,1907.06,4667.115,1893.245,4667.446,1879.441z"/>
	<path fill="#FFFFFF" d="M830.69,1815.688c-0.007-19.849-0.099-19.902-20.405-19.907c-104.63-0.017-209.259-0.009-313.889-0.009
		c-2.216,0-4.433-0.058-6.644,0.022c-12.734,0.455-13.291,0.764-13.671,13.062c-0.354,11.616-0.175,23.245-0.158,34.875
		c0.03,22.986,0.052,23.075,22.417,23.084c72.521,0.044,145.042,0.015,217.563,0.021c10.518,0,21.033,0.184,31.546,0.016
		c7.917-0.125,12.534,2.311,12.309,11.381c-0.398,16.039-0.234,32.102-0.073,48.146c0.077,7.7-3.481,11.141-11.04,10.959
		c-4.426-0.109-8.856,0.049-13.287,0.049c-78.609,0.002-157.219,0-235.83,0.012c-4.979,0.004-9.965,0.041-14.938,0.271
		c-5.105,0.238-8.276,2.68-8.355,8.172c-0.056,3.875-0.185,7.752-0.188,11.625c-0.051,58.127-0.087,116.254-0.122,174.383
		c0,2.213,0.148,4.433,0.037,6.641c-0.418,8.118,2.785,12.642,11.517,12.174c3.862-0.205,7.748,0.019,11.624,0.019
		c51.482,0.002,102.966,0,154.451,0c51.483,0,102.967,0.002,154.453-0.005c4.428,0,8.856-0.033,13.283-0.117
		c6.091-0.119,9.016-3.479,9.27-9.359c0.142-3.317,0.146-6.644,0.146-9.961C830.711,2026.053,830.725,1920.87,830.69,1815.688z
		 M759.652,2063.773c-0.168,14.938-0.682,15.436-16.274,15.672c-11.613,0.176-23.232,0.051-34.85,0.051
		c-48.129-0.002-96.256,0.064-144.385-0.047c-17.51-0.041-17.612-0.254-17.8-17.625c-0.14-12.719-0.205-25.451,0.063-38.17
		c0.295-13.849,1.202-14.793,15.534-14.875c30.423-0.172,60.85-0.056,91.274-0.058c30.427-0.004,60.854-0.122,91.277,0.052
		c14.07,0.077,14.967,1.104,15.15,15.17C759.816,2037.222,759.802,2050.5,759.652,2063.773z"/>
	<path fill="#FFFFFF" d="M2393.099,2129.566c0.002-104.061,0.004-208.122-0.01-312.184c-0.002-4.424-0.082-8.854-0.311-13.27
		c-0.271-5.255-3.08-8.085-8.438-8.171c-4.426-0.068-8.854-0.163-13.279-0.165c-51.477-0.011-102.953-0.007-154.429-0.007
		c-53.14,0-106.275-0.021-159.414,0.009c-18.985,0.014-18.994,0.071-19.039,19.608c-0.019,8.305-0.069,16.608,0.024,24.912
		c0.313,27.087-3.883,26.543,27.351,26.538c76.386-0.011,152.771-0.005,229.154-0.005c3.875,0,7.751-0.06,11.623,0.023
		c15.628,0.343,16.026,0.633,16.301,15.68c0.201,11.065,0.108,22.141,0.054,33.21c-0.106,21.585-0.134,21.625-22.008,21.633
		c-81.367,0.021-162.732-0.028-244.098,0.046c-17.754,0.012-18.383,0.52-18.412,17.107c-0.104,60.334-0.004,120.667,0.02,181.001
		c0.002,1.661,0.074,3.32,0.058,4.979c-0.068,6.868,3.355,10.146,10.178,10.088c4.429-0.038,8.856,0.071,13.283,0.071
		c102.952,0.008,205.907,0.008,308.862,0.006c3.32,0,6.649,0.135,9.961-0.05c11.175-0.612,11.848-1.316,12.498-12.762
		C2393.186,2135.109,2393.097,2132.334,2393.099,2129.566z M2322.58,2065.449c-0.203,12.897-1.041,13.853-14.598,13.953
		c-30.438,0.225-60.877,0.07-91.313,0.073c-30.438,0.004-60.879,0.139-91.316-0.056c-15.368-0.095-15.72-0.594-15.922-15.984
		c-0.174-13.279-0.219-26.565,0.022-39.846c0.259-14.049,0.908-14.765,15.429-14.812c43.168-0.141,86.334-0.062,129.504-0.062
		c18.262,0,36.528-0.188,54.788,0.089c12.265,0.188,13.103,1.07,13.359,13.479
		C2322.834,2036.672,2322.808,2051.064,2322.58,2065.449z"/>
	<path fill="#FFFFFF" d="M3246.773,2487.382c0-82.417,0-164.837-0.014-247.254c0-3.874-0.063-7.745-0.24-11.611
		c-0.211-4.589-2.75-7.041-7.305-7.256c-3.316-0.153-6.636-0.142-9.951-0.142c-106.205-0.041-212.412-0.098-318.615-0.092
		c-19.879,0-20.004,0.107-20.021,20.072c-0.055,76.332-0.021,152.668-0.027,229c-0.004,74.123-0.006,148.242,0,222.365
		c0,4.979,0.244,9.963,0.088,14.936c-0.223,7.352,2.541,11.498,10.516,11.43c17.146-0.152,34.295-0.086,51.443-0.065
		c6.963,0.009,9.947-3.744,10.017-10.353c0.043-4.428,0.09-8.85,0.09-13.277c0.008-55.313,0.004-110.631,0.012-165.943
		c0-4.426,0.156-8.852,0.099-13.272c-0.095-7.002,3.399-9.996,10.248-9.75c4.42,0.162,8.846-0.026,13.272-0.026
		c79.104-0.007,158.201-0.002,237.303-0.009c4.425,0,8.849-0.075,13.275-0.104c6.871-0.04,10.047-3.513,9.764-10.353
		C3246.609,2492.92,3246.773,2490.149,3246.773,2487.382z M3174.452,2418.297c-0.065,15.104-0.424,15.371-16.207,15.392
		c-59.68,0.086-119.366,0.086-179.047,0.003c-15.824-0.02-16.254-0.333-16.328-15.314c-0.176-36.476-0.18-72.947,0.017-109.422
		c0.082-15.077,0.428-15.252,16.281-15.311c29.842-0.112,59.686-0.03,89.524-0.03c29.844,0,59.687-0.077,89.527,0.03
		c15.922,0.059,16.17,0.2,16.231,15.242C3174.605,2345.352,3174.616,2381.828,3174.452,2418.297z"/>
	<path fill="#FFFFFF" d="M1541.408,1818.968c0-3.871-0.21-7.753-0.026-11.616c0.405-8.48-3.502-11.843-11.945-11.658
		c-15.483,0.35-30.983-0.105-46.469,0.161c-11.343,0.201-11.711,0.748-12.243,12.612c-0.273,6.076-0.078,12.167-0.096,18.256
		c-0.105,32.085-0.03,64.175-0.402,96.257c-0.152,13.178-1.196,13.827-14.38,14.354c-4.418,0.176-8.851,0.054-13.276,0.054
		c-77.453,0-154.906-0.002-232.359,0.007c-4.979,0-9.956,0.115-14.935,0.165c-6.193,0.062-8.94,3.339-8.862,9.366
		c0.041,3.318-0.094,6.638-0.094,9.956c-0.007,58.089-0.031,116.181,0.012,174.271c0.012,19.406,0.091,19.494,18.943,19.512
		c53.112,0.048,106.224,0.018,159.332,0.018c7.194,0.002,14.385,0,21.578,0c45.364,0,90.73,0.04,136.098-0.02
		c19.007-0.025,19.007-0.121,19.129-19.668c0.005-1.105,0.002-2.209,0.002-3.317
		C1541.412,2024.772,1541.412,1921.869,1541.408,1818.968z M1470.229,2066.164c-0.208,12.184-0.959,13.111-13.48,13.214
		c-30.979,0.254-61.963,0.085-92.944,0.099c-29.878,0.01-59.754,0.11-89.628-0.029c-16.603-0.078-17.059-0.668-17.13-16.61
		c-0.061-12.727-0.085-25.448,0.018-38.175c0.115-14.584,1.226-15.854,16.313-15.888c50.347-0.125,100.691-0.056,151.039-0.052
		c11.617,0,23.238,0.173,34.854,0.002c7.64-0.105,11.184,3.363,11.129,10.967
		C1470.286,2035.181,1470.496,2050.677,1470.229,2066.164z"/>
</g>
</svg>
