<?xml version="1.0" standalone="no"?>
<!DOCTYPE svg PUBLIC "-//W3C//DTD SVG 20010904//EN"
 "http://www.w3.org/TR/2001/REC-SVG-20010904/DTD/svg10.dtd">
<svg version="1.0" xmlns="http://www.w3.org/2000/svg"
 width="1000.000000pt" height="1000.000000pt"
 viewBox="0 0 1000.000000 1000.000000" preserveAspectRatio="xMidYMid meet">
  <g transform="translate(0.000000,1000.000000) scale(0.100000,-0.100000)"
   fill="#000000" stroke="none">
    <path d="M7016 8169 c-379 -54 -675 -289 -819 -651 -48 -121 -65 -227 -62
    -378 4 -145 4 -153 30 -249 43 -166 117 -304 227 -424 143 -156 344 -276 533
    -318 140 -31 318 -30 450 1 22 5 49 10 60 10 14 0 193 -172 550 -530 291 -291
    535 -541 542 -554 22 -42 23 -107 2 -151 -22 -46 -1225 -1256 -1274 -1282 -41
    -22 -88 -27 -132 -13 -31 10 -431 406 -2104 2079 -1136 1137 -2082 2079 -2103
    2094 -53 35 -127 33 -182 -6 -68 -47 -2703 -2693 -2718 -2729 -17 -39 -13
    -105 7 -145 9 -16 417 -429 907 -918 490 -490 898 -903 906 -918 10 -19 13
    -39 8 -60 -13 -55 -14 -69 -15 -177 0 -108 2 -133 26 -235 44 -194 133 -353
    275 -495 110 -108 189 -159 375 -241 23 -9 132 -38 179 -46 87 -15 277 -11
    363 6 386 79 697 372 793 744 29 116 40 292 25 407 -58 433 -417 801 -849 871
    -85 13 -307 7 -366 -11 -19 -5 -51 -10 -70 -10 -32 0 -67 33 -562 527 -364
    364 -534 541 -547 569 -22 46 -20 97 4 144 16 31 1170 1191 1249 1255 42 35
    54 39 100 39 28 0 65 -8 81 -16 17 -9 962 -949 2100 -2089 1268 -1269 2082
    -2077 2102 -2086 41 -17 95 -17 136 1 43 18 2719 2694 2741 2741 21 43 15 125
    -13 163 -10 15 -419 428 -909 917 -489 490 -895 900 -901 913 -7 12 -10 26 -7
    31 19 30 26 229 13 341 -17 146 -80 313 -168 442 -57 84 -186 210 -284 278
    -90 62 -222 122 -310 141 -33 7 -67 14 -75 16 -33 8 -258 9 -314 2z m234 -514
    c25 -4 81 -24 125 -45 157 -76 260 -216 283 -383 23 -172 -23 -309 -144 -431
    -205 -206 -540 -196 -735 22 -160 178 -177 428 -41 624 87 126 203 192 387
    221 22 3 54 1 125 -8z m-4275 -4316 c113 -26 230 -110 297 -214 170 -262 63
    -625 -220 -746 -143 -62 -284 -58 -427 11 -177 86 -287 260 -285 450 1 112 10
    151 57 241 108 210 338 313 578 258z"/>
    <path d="M6943 5756 l-28 -24 -1 -226 c-1 -125 -4 -230 -8 -234 -4 -3 -105 -7
    -225 -7 -188 0 -221 -3 -244 -18 -35 -23 -38 -48 -35 -268 4 -247 -19 -227
    273 -229 121 0 224 -5 228 -9 5 -5 10 -109 11 -230 1 -289 -20 -265 239 -268
    119 -2 202 1 219 8 48 19 53 47 52 270 -1 121 3 209 9 217 7 9 64 12 224 12
    216 0 244 4 269 38 13 18 16 395 3 429 -16 42 -42 47 -269 48 -118 0 -220 4
    -226 7 -7 5 -10 80 -9 220 1 224 -4 256 -44 278 -12 6 -100 10 -215 10 -192 0
    -195 0 -223 -24z"/>
    <path d="M2109 5233 c-15 -6 -32 -20 -38 -31 -9 -17 -13 -134 -12 -345 1 -69
    4 -81 26 -102 l24 -25 720 0 720 0 23 31 c22 29 23 39 24 222 1 205 -6 239
    -51 254 -37 13 -1405 9 -1436 -4z"/>
  </g>
</svg>
